<?xml version="1.0" encoding="UTF-8"?>
<svg id="Layer_1"
  xmlns="http://www.w3.org/2000/svg" version="1.1" viewBox="0 0 56.8 56.8">
  <!-- Generator: Adobe Illustrator 29.6.1, SVG Export Plug-In . SVG Version: 2.1.1 Build 9)  -->
  <defs>
    <style>
      .st0 {
        fill: none;
        stroke: #000;
        stroke-linecap: round;
        stroke-miterlimit: 10;
        stroke-width: 2px;
      }

      .st1 {
        fill: #cc1414;
      }
    </style>
  </defs>
  <circle class="st1" cx="28.1" cy="28.4" r="6.1"/>
  <path d="M37.6,53.9c-.3,0-.7,0-.9-.2s-.3-.5-.2-.9l.8-4,4.3,4.3-4,.9Z"/>
  <path d="M38.5,47.2l9.8-9.8c.3-.3.8-.6,1.3-.6s.9.2,1.3.6l2,2c.3.3.6.8.6,1.3s-.2.9-.6,1.3l-9.8,9.8-4.6-4.6Z"/>
  <path class="st0" d="M33.1,53.7s-3.8,0-4.5,0c-1.2,0-2.8-.5-2.9-1.1s0-3.9,0-6.3,0-5.3-.4-6.5-1.1-1.7-2.1-1.7-2.6,1.1-2.8,2.9-.3,5.1,0,6.8,0,3-.3,3.6-.5,2-1.8,2.2-5.5.8-5.9.1,3.1-4.3,2.1-10.3.2-8.7.4-10.1,1-5.1,1.1-7.6.5-2.6-1.2-3.8-5.7-1.1-7.8-1.7-4.7-1-3.9-3.9,5.5-1.3,7.2-1,5.4.8,7.3.9,3.7-.3,3.8-.9,0-1.2-.7-1.7-2.7-2.1-2.6-4.9,3-4.5,5.2-4.5,4.9,1.3,5.2,4.6-.9,4.4-2.7,6.3c0,1.2,4.3,2.9,10.2,1.5s8.4-3.9,8.9-3.6-.3,4.5-3.1,6.9-5.2,2.8-6.8,2.8"/>
</svg>